<svg xmlns="http://www.w3.org/2000/svg" fill="none" viewBox="0 7 111 105">
<rect y="7" width="111" height="105" fill="#FF5050"/>
<path d="M18.692 29.412H18.544V65.006C18.544 66.3873 18.8153 67.374 19.358 67.966C19.95 68.558 20.912 68.854 22.244 68.854H25.13V71H10.034V68.854H12.18C13.364 68.854 14.2273 68.558 14.77 67.966C15.362 67.3247 15.658 66.338 15.658 65.006V28.524C15.658 27.2413 15.5347 26.3287 15.288 25.786C15.0413 25.2433 14.548 24.8733 13.808 24.676C13.068 24.4787 11.7853 24.3553 9.96 24.306V22.16H22.392L47.33 60.048H47.552V27.858C47.552 25.49 46.294 24.306 43.778 24.306H40.892V22.16H55.988V24.306H53.768C51.4987 24.306 50.364 25.49 50.364 27.858V71.444H46.738L18.692 29.412Z" fill="black"/>
<path d="M49.404 90.792H51.328C51.8707 94.2453 53.3013 97.2053 55.62 99.672C57.9387 102.139 60.8987 103.372 64.5 103.372C67.608 103.372 70.0253 102.459 71.752 100.634C73.528 98.8087 74.416 96.5147 74.416 93.752C74.416 91.4333 73.7253 89.5093 72.344 87.98C70.9627 86.4507 68.8167 85.0447 65.906 83.762L62.502 82.356C58.4073 80.6293 55.2993 78.7053 53.178 76.584C51.0567 74.4627 49.996 71.6013 49.996 68C49.996 63.856 51.402 60.6987 54.214 58.528C57.026 56.3573 60.6273 55.272 65.018 55.272C67.83 55.272 70.3213 55.79 72.492 56.826C73.38 57.1713 73.9967 57.344 74.342 57.344C74.7367 57.344 75.0327 57.196 75.23 56.9C75.4273 56.5547 75.6 56.086 75.748 55.494H77.376L78.116 68.592H76.192C75.6987 65.336 74.5393 62.7213 72.714 60.748C70.8887 58.7747 68.3727 57.788 65.166 57.788C62.5513 57.788 60.4547 58.5033 58.876 59.934C57.3467 61.3153 56.582 63.3873 56.582 66.15C56.582 68.518 57.2727 70.3927 58.654 71.774C60.0353 73.1553 62.1567 74.4627 65.018 75.696L68.57 77.176C71.1847 78.3107 73.3553 79.4453 75.082 80.58C76.858 81.7147 78.3133 83.2193 79.448 85.094C80.5827 86.9193 81.15 89.164 81.15 91.828C81.15 96.1693 79.6453 99.598 76.636 102.114C73.676 104.63 69.6553 105.888 64.574 105.888C62.6993 105.888 61.1453 105.74 59.912 105.444C58.6787 105.197 57.3713 104.827 55.99 104.334C55.102 103.939 54.4113 103.742 53.918 103.742C53.3753 103.742 52.956 103.915 52.66 104.26C52.4133 104.605 52.2653 105.049 52.216 105.592H50.366L49.404 90.792Z" fill="black"/>
<path d="M68.7 68.854C70.5747 68.854 71.882 68.7553 72.622 68.558C73.4113 68.3113 73.9047 67.9167 74.102 67.374C74.2993 66.782 74.398 65.7953 74.398 64.414V28.746C74.398 27.3647 74.2747 26.4027 74.028 25.86C73.8307 25.268 73.3373 24.8733 72.548 24.676C71.808 24.4293 70.5253 24.306 68.7 24.306V22.16H103.258V33.778H101.26C100.816 31.2127 100.273 29.3133 99.632 28.08C98.9907 26.8467 97.9547 25.9833 96.524 25.49C95.1427 24.9473 93.0707 24.676 90.308 24.676H83.944C82.8093 24.676 82.0693 24.824 81.724 25.12C81.428 25.416 81.28 26.156 81.28 27.34V45.248H90.012C91.8867 45.248 93.268 45.0507 94.156 44.656C95.044 44.2613 95.6607 43.6693 96.006 42.88C96.3513 42.0907 96.672 40.808 96.968 39.032H98.67V54.35H96.968C96.672 52.574 96.3513 51.2913 96.006 50.502C95.6607 49.7127 95.044 49.1207 94.156 48.726C93.268 48.3313 91.8867 48.134 90.012 48.134H81.28V64.414C81.28 65.7953 81.4033 66.782 81.65 67.374C81.8967 67.9167 82.464 68.3113 83.352 68.558C84.2893 68.7553 85.868 68.854 88.088 68.854V71H68.7V68.854Z" fill="black"/>
</svg>